REM DIRINDEX 1\2\4\18,1\2\4\19,1\2\5\20,1\2\5\21,1\2\6\22,1\2\7\23,1\2\8\24,1\2\8\25,1\2\9\26,1\2\10\27,1\3\11\28,1\3\11\29,1\3\11\30,1\3\11\31,1\3\12\32,1\3\12\33,1\3\12\34,1\3\12\35,1\3\13\36,1\3\13\37,1\3\14\38,1\3\14\39,1\3\15\40,1\3\15\41,1\3\15\42,1\3\16\43,1\3\16\44,1\3\17\45,1\3\17\46
REM DIRNAME folder01,folder02,folder03,folder04,folder05,folder06,folder07,folder08,folder09,folder10,folder11,folder12,folder13,folder14,folder15,folder16,folder17,folder18,folder19,folder20,folder21,folder22,folder23,folder24,folder25,folder26,folder27,folder28,folder29,folder30,folder31,folder32,folder33,folder34,folder35,folder36,folder37,folder38,folder39,folder40,folder41,folder42,folder43,folder44,folder45,folder46
TITLE ""
FILE "09.mp3" MP3
  TRACK 01 AUDIO
    TITLE "0:"
    INDEX 01 00:00:00
  TRACK 02 AUDIO
    TITLE "18:cjc023_1433"
    INDEX 01 00:00:13
  TRACK 03 AUDIO
    TITLE "0:"
    INDEX 01 00:01:38
  TRACK 04 AUDIO
    TITLE "19:cjc023_1434"
    INDEX 01 00:01:60
  TRACK 05 AUDIO
    TITLE "0:"
    INDEX 01 00:03:51
  TRACK 06 AUDIO
    TITLE "18:cjc023_1435"
    INDEX 01 00:04:48
  TRACK 07 AUDIO
    TITLE "0:"
    INDEX 01 00:05:65
  TRACK 08 AUDIO
    TITLE "19:cjc023_1436"
    INDEX 01 00:06:12
  TRACK 09 AUDIO
    TITLE "0:"
    INDEX 01 00:07:70
  TRACK 10 AUDIO
    TITLE "18:cjc023_1437"
    INDEX 01 00:08:68
  TRACK 11 AUDIO
    TITLE "0:"
    INDEX 01 00:10:08
  TRACK 12 AUDIO
    TITLE "19:cjc023_1438"
    INDEX 01 00:10:31
  TRACK 13 AUDIO
    TITLE "0:"
    INDEX 01 00:12:46
  TRACK 14 AUDIO
    TITLE "18:cjc023_1439"
    INDEX 01 00:13:45
  TRACK 15 AUDIO
    TITLE "0:"
    INDEX 01 00:14:70
  TRACK 16 AUDIO
    TITLE "19:cjc023_1440"
    INDEX 01 00:15:19
  TRACK 17 AUDIO
    TITLE "0:"
    INDEX 01 00:17:53
  TRACK 18 AUDIO
    TITLE "18:cjc023_1441"
    INDEX 01 00:18:50
  TRACK 19 AUDIO
    TITLE "0:"
    INDEX 01 00:19:50
  TRACK 20 AUDIO
    TITLE "19:cjc023_1442"
    INDEX 01 00:20:00
  TRACK 21 AUDIO
    TITLE "0:"
    INDEX 01 00:22:15
  TRACK 22 AUDIO
    TITLE "18:cjc023_1443"
    INDEX 01 00:23:18
  TRACK 23 AUDIO
    TITLE "0:"
    INDEX 01 00:24:29
  TRACK 24 AUDIO
    TITLE "19:cjc023_1444"
    INDEX 01 00:24:55
  TRACK 25 AUDIO
    TITLE "0:"
    INDEX 01 00:28:13
  TRACK 26 AUDIO
    TITLE "18:cjc023_1445"
    INDEX 01 00:29:11
  TRACK 27 AUDIO
    TITLE "0:"
    INDEX 01 00:30:32
  TRACK 28 AUDIO
    TITLE "19:cjc023_1446"
    INDEX 01 00:30:54
  TRACK 29 AUDIO
    TITLE "0:"
    INDEX 01 00:33:71
  TRACK 30 AUDIO
    TITLE "18:cjc023_1447"
    INDEX 01 00:34:67
  TRACK 31 AUDIO
    TITLE "0:"
    INDEX 01 00:36:19
  TRACK 32 AUDIO
    TITLE "19:cjc023_1448"
    INDEX 01 00:36:40
  TRACK 33 AUDIO
    TITLE "0:"
    INDEX 01 00:39:23
  TRACK 34 AUDIO
    TITLE "18:cjc023_1449"
    INDEX 01 00:40:23
  TRACK 35 AUDIO
    TITLE "0:"
    INDEX 01 00:41:32
  TRACK 36 AUDIO
    TITLE "19:cjc023_1450"
    INDEX 01 00:41:53
  TRACK 37 AUDIO
    TITLE "0:"
    INDEX 01 00:44:12
  TRACK 38 AUDIO
    TITLE "18:cjc023_1451"
    INDEX 01 00:45:08
  TRACK 39 AUDIO
    TITLE "0:"
    INDEX 01 00:46:41
  TRACK 40 AUDIO
    TITLE "19:cjc023_1452"
    INDEX 01 00:46:62
  TRACK 41 AUDIO
    TITLE "0:"
    INDEX 01 00:49:14
  TRACK 42 AUDIO
    TITLE "18:cjc023_1453"
    INDEX 01 00:50:15
  TRACK 43 AUDIO
    TITLE "0:"
    INDEX 01 00:51:32
  TRACK 44 AUDIO
    TITLE "19:cjc023_1454"
    INDEX 01 00:51:56
  TRACK 45 AUDIO
    TITLE "0:"
    INDEX 01 00:53:74
  TRACK 46 AUDIO
    TITLE "18:cjc023_1455"
    INDEX 01 00:54:70
  TRACK 47 AUDIO
    TITLE "0:"
    INDEX 01 00:56:06
  TRACK 48 AUDIO
    TITLE "19:cjc023_1456"
    INDEX 01 00:56:29
  TRACK 49 AUDIO
    TITLE "0:"
    INDEX 01 00:58:36
  TRACK 50 AUDIO
    TITLE "18:cjc023_1457"
    INDEX 01 00:59:34
  TRACK 51 AUDIO
    TITLE "0:"
    INDEX 01 01:00:47
  TRACK 52 AUDIO
    TITLE "19:cjc023_1458"
    INDEX 01 01:00:70
  TRACK 53 AUDIO
    TITLE "0:"
    INDEX 01 01:02:44
  TRACK 54 AUDIO
    TITLE "18:cjc023_1459"
    INDEX 01 01:03:43
  TRACK 55 AUDIO
    TITLE "0:"
    INDEX 01 01:04:70
  TRACK 56 AUDIO
    TITLE "19:cjc023_1460"
    INDEX 01 01:05:15
  TRACK 57 AUDIO
    TITLE "0:"
    INDEX 01 01:07:08
  TRACK 58 AUDIO
    TITLE "18:cjc023_1461"
    INDEX 01 01:08:05
  TRACK 59 AUDIO
    TITLE "0:"
    INDEX 01 01:09:26
  TRACK 60 AUDIO
    TITLE "19:cjc023_1462"
    INDEX 01 01:09:54
  TRACK 61 AUDIO
    TITLE "0:"
    INDEX 01 01:11:47
  TRACK 62 AUDIO
    TITLE "18:cjc023_1463"
    INDEX 01 01:12:50
  TRACK 63 AUDIO
    TITLE "0:"
    INDEX 01 01:13:63
  TRACK 64 AUDIO
    TITLE "19:cjc023_1464"
    INDEX 01 01:14:10
  TRACK 65 AUDIO
    TITLE "0:"
    INDEX 01 01:16:48
  TRACK 66 AUDIO
    TITLE "18:cjc023_1465"
    INDEX 01 01:17:45
  TRACK 67 AUDIO
    TITLE "0:"
    INDEX 01 01:18:64
  TRACK 68 AUDIO
    TITLE "19:cjc023_1466"
    INDEX 01 01:19:13
  TRACK 69 AUDIO
    TITLE "0:"
    INDEX 01 01:21:10
  TRACK 70 AUDIO
    TITLE "18:cjc023_1467"
    INDEX 01 01:22:11
  TRACK 71 AUDIO
    TITLE "0:"
    INDEX 01 01:23:40
  TRACK 72 AUDIO
    TITLE "19:cjc023_1468"
    INDEX 01 01:23:60
  TRACK 73 AUDIO
    TITLE "0:"
    INDEX 01 01:27:73
  TRACK 74 AUDIO
    TITLE "18:cjc023_1469"
    INDEX 01 01:28:69
  TRACK 75 AUDIO
    TITLE "0:"
    INDEX 01 01:30:24
  TRACK 76 AUDIO
    TITLE "19:cjc023_1470"
    INDEX 01 01:30:46
  TRACK 77 AUDIO
    TITLE "0:"
    INDEX 01 01:33:72
  TRACK 78 AUDIO
    TITLE "18:cjc023_1471"
    INDEX 01 01:34:71
  TRACK 79 AUDIO
    TITLE "0:"
    INDEX 01 01:36:21
  TRACK 80 AUDIO
    TITLE "19:cjc023_1472"
    INDEX 01 01:36:43
  TRACK 81 AUDIO
    TITLE "0:"
    INDEX 01 01:39:68
  TRACK 82 AUDIO
    TITLE "18:cjc023_1473"
    INDEX 01 01:40:58
  TRACK 83 AUDIO
    TITLE "0:"
    INDEX 01 01:42:06
  TRACK 84 AUDIO
    TITLE "19:cjc023_1474"
    INDEX 01 01:42:28
  TRACK 85 AUDIO
    TITLE "0:"
    INDEX 01 01:45:10
  TRACK 86 AUDIO
    TITLE "18:cjc023_1475"
    INDEX 01 01:46:06
  TRACK 87 AUDIO
    TITLE "0:"
    INDEX 01 01:47:25
  TRACK 88 AUDIO
    TITLE "19:cjc023_1476"
    INDEX 01 01:47:46
  TRACK 89 AUDIO
    TITLE "0:"
    INDEX 01 01:50:04
  TRACK 90 AUDIO
    TITLE "18:cjc023_1477"
    INDEX 01 01:51:03
  TRACK 91 AUDIO
    TITLE "0:"
    INDEX 01 01:52:14
  TRACK 92 AUDIO
    TITLE "19:cjc023_1478"
    INDEX 01 01:52:36
  TRACK 93 AUDIO
    TITLE "0:"
    INDEX 01 01:54:62
  TRACK 94 AUDIO
    TITLE "18:cjc023_1479"
    INDEX 01 01:55:60
  TRACK 95 AUDIO
    TITLE "0:"
    INDEX 01 01:57:15
  TRACK 96 AUDIO
    TITLE "19:cjc023_1480"
    INDEX 01 01:57:37
  TRACK 97 AUDIO
    TITLE "0:"
    INDEX 01 02:00:04
  TRACK 98 AUDIO
    TITLE "18:cjc023_1481"
    INDEX 01 02:00:74
  TRACK 99 AUDIO
    TITLE "0:"
    INDEX 01 02:02:17
  TRACK 100 AUDIO
    TITLE "19:cjc023_1482"
    INDEX 01 02:02:38
  TRACK 101 AUDIO
    TITLE "0:"
    INDEX 01 02:04:23
  TRACK 102 AUDIO
    TITLE "18:cjc023_1483"
    INDEX 01 02:05:23
  TRACK 103 AUDIO
    TITLE "0:"
    INDEX 01 02:06:61
  TRACK 104 AUDIO
    TITLE "19:cjc023_1484"
    INDEX 01 02:07:08
  TRACK 105 AUDIO
    TITLE "0:"
    INDEX 01 02:10:34
  TRACK 106 AUDIO
    TITLE "18:cjc023_1485"
    INDEX 01 02:11:31
  TRACK 107 AUDIO
    TITLE "0:"
    INDEX 01 02:12:29
  TRACK 108 AUDIO
    TITLE "19:cjc023_1486"
    INDEX 01 02:12:52
  TRACK 109 AUDIO
    TITLE "0:"
    INDEX 01 02:15:33
  TRACK 110 AUDIO
    TITLE "18:cjc023_1487"
    INDEX 01 02:16:30
  TRACK 111 AUDIO
    TITLE "0:"
    INDEX 01 02:17:55
  TRACK 112 AUDIO
    TITLE "19:cjc023_1488"
    INDEX 01 02:18:00
  TRACK 113 AUDIO
    TITLE "0:"
    INDEX 01 02:20:54
  TRACK 114 AUDIO
    TITLE "18:cjc023_1489"
    INDEX 01 02:21:53
  TRACK 115 AUDIO
    TITLE "0:"
    INDEX 01 02:23:25
  TRACK 116 AUDIO
    TITLE "19:cjc023_1490"
    INDEX 01 02:23:44
  TRACK 117 AUDIO
    TITLE "0:"
    INDEX 01 02:25:68
  TRACK 118 AUDIO
    TITLE "18:cjc023_1491"
    INDEX 01 02:26:66
  TRACK 119 AUDIO
    TITLE "0:"
    INDEX 01 02:28:26
  TRACK 120 AUDIO
    TITLE "19:cjc023_1492"
    INDEX 01 02:28:47
  TRACK 121 AUDIO
    TITLE "0:"
    INDEX 01 02:31:08
  TRACK 122 AUDIO
    TITLE "18:cjc023_1493"
    INDEX 01 02:32:06
  TRACK 123 AUDIO
    TITLE "0:"
    INDEX 01 02:33:19
  TRACK 124 AUDIO
    TITLE "19:cjc023_1494"
    INDEX 01 02:33:41
  TRACK 125 AUDIO
    TITLE "0:"
    INDEX 01 02:36:43
  TRACK 126 AUDIO
    TITLE "18:cjc023_1495"
    INDEX 01 02:37:46
  TRACK 127 AUDIO
    TITLE "0:"
    INDEX 01 02:38:61
  TRACK 128 AUDIO
    TITLE "19:cjc023_1496"
    INDEX 01 02:39:06
  TRACK 129 AUDIO
    TITLE "0:"
    INDEX 01 02:40:68
  TRACK 130 AUDIO
    TITLE "18:cjc023_1497"
    INDEX 01 02:41:62
  TRACK 131 AUDIO
    TITLE "0:"
    INDEX 01 02:43:12
  TRACK 132 AUDIO
    TITLE "19:cjc023_1498"
    INDEX 01 02:43:33
  TRACK 133 AUDIO
    TITLE "0:"
    INDEX 01 02:45:14
  TRACK 134 AUDIO
    TITLE "18:cjc023_1499"
    INDEX 01 02:46:10
  TRACK 135 AUDIO
    TITLE "0:"
    INDEX 01 02:47:31
  TRACK 136 AUDIO
    TITLE "19:cjc023_1500"
    INDEX 01 02:47:56
  TRACK 137 AUDIO
    TITLE "0:"
    INDEX 01 02:49:45
  TRACK 138 AUDIO
    TITLE "18:cjc023_1501"
    INDEX 01 02:50:43
  TRACK 139 AUDIO
    TITLE "0:"
    INDEX 01 02:51:52
  TRACK 140 AUDIO
    TITLE "19:cjc023_1502"
    INDEX 01 02:51:74
  TRACK 141 AUDIO
    TITLE "0:"
    INDEX 01 02:54:11
  TRACK 142 AUDIO
    TITLE "18:cjc023_1503"
    INDEX 01 02:55:09
  TRACK 143 AUDIO
    TITLE "0:"
    INDEX 01 02:56:20
  TRACK 144 AUDIO
    TITLE "19:cjc023_1504"
    INDEX 01 02:56:40
  TRACK 145 AUDIO
    TITLE "0:"
    INDEX 01 02:58:27
  TRACK 146 AUDIO
    TITLE "18:cjc023_1505"
    INDEX 01 02:59:22
  TRACK 147 AUDIO
    TITLE "0:"
    INDEX 01 03:00:22
  TRACK 148 AUDIO
    TITLE "19:cjc023_1506"
    INDEX 01 03:00:43
  TRACK 149 AUDIO
    TITLE "0:"
    INDEX 01 03:03:38
  TRACK 150 AUDIO
    TITLE "18:cjc023_1507"
    INDEX 01 03:04:33
  TRACK 151 AUDIO
    TITLE "0:"
    INDEX 01 03:05:52
  TRACK 152 AUDIO
    TITLE "19:cjc023_1508"
    INDEX 01 03:06:01
  TRACK 153 AUDIO
    TITLE "0:"
    INDEX 01 03:08:29
  TRACK 154 AUDIO
    TITLE "18:cjc023_1509"
    INDEX 01 03:09:27
  TRACK 155 AUDIO
    TITLE "0:"
    INDEX 01 03:10:59
  TRACK 156 AUDIO
    TITLE "19:cjc023_1510"
    INDEX 01 03:11:08
  TRACK 157 AUDIO
    TITLE "0:"
    INDEX 01 03:13:13
  TRACK 158 AUDIO
    TITLE "18:cjc023_1511"
    INDEX 01 03:14:12
  TRACK 159 AUDIO
    TITLE "0:"
    INDEX 01 03:15:17
  TRACK 160 AUDIO
    TITLE "19:cjc023_1512"
    INDEX 01 03:15:41
  TRACK 161 AUDIO
    TITLE "0:"
    INDEX 01 03:18:04
  TRACK 162 AUDIO
    TITLE "18:cjc023_1513"
    INDEX 01 03:18:73
  TRACK 163 AUDIO
    TITLE "0:"
    INDEX 01 03:20:13
  TRACK 164 AUDIO
    TITLE "19:cjc023_1514"
    INDEX 01 03:20:34
  TRACK 165 AUDIO
    TITLE "0:"
    INDEX 01 03:23:07
  TRACK 166 AUDIO
    TITLE "18:cjc023_1515"
    INDEX 01 03:24:05
  TRACK 167 AUDIO
    TITLE "0:"
    INDEX 01 03:25:10
  TRACK 168 AUDIO
    TITLE "19:cjc023_1516"
    INDEX 01 03:25:33
  TRACK 169 AUDIO
    TITLE "0:"
    INDEX 01 03:27:28
  TRACK 170 AUDIO
    TITLE "18:cjc023_1517"
    INDEX 01 03:28:28
  TRACK 171 AUDIO
    TITLE "0:"
    INDEX 01 03:29:43
  TRACK 172 AUDIO
    TITLE "19:cjc023_1518"
    INDEX 01 03:29:69
  TRACK 173 AUDIO
    TITLE "0:"
    INDEX 01 03:33:04
  TRACK 174 AUDIO
    TITLE "18:cjc023_1519"
    INDEX 01 03:34:01
  TRACK 175 AUDIO
    TITLE "0:"
    INDEX 01 03:35:10
  TRACK 176 AUDIO
    TITLE "19:cjc023_1520"
    INDEX 01 03:35:32
  TRACK 177 AUDIO
    TITLE "0:"
    INDEX 01 03:37:52
  TRACK 178 AUDIO
    TITLE "18:cjc023_1521"
    INDEX 01 03:38:50
  TRACK 179 AUDIO
    TITLE "0:"
    INDEX 01 03:39:69
  TRACK 180 AUDIO
    TITLE "19:cjc023_1522"
    INDEX 01 03:40:15
  TRACK 181 AUDIO
    TITLE "0:"
    INDEX 01 03:42:57
  TRACK 182 AUDIO
    TITLE "18:cjc023_1523"
    INDEX 01 03:43:55
  TRACK 183 AUDIO
    TITLE "0:"
    INDEX 01 03:45:05
  TRACK 184 AUDIO
    TITLE "19:cjc023_1524"
    INDEX 01 03:45:22
  TRACK 185 AUDIO
    TITLE "0:"
    INDEX 01 03:47:10
  TRACK 186 AUDIO
    TITLE "18:cjc023_1525"
    INDEX 01 03:48:03
  TRACK 187 AUDIO
    TITLE "0:"
    INDEX 01 03:49:16
  TRACK 188 AUDIO
    TITLE "19:cjc023_1526"
    INDEX 01 03:49:38
  TRACK 189 AUDIO
    TITLE "0:"
    INDEX 01 03:53:10
  TRACK 190 AUDIO
    TITLE "18:cjc023_1527"
    INDEX 01 03:54:06
  TRACK 191 AUDIO
    TITLE "0:"
    INDEX 01 03:55:37
  TRACK 192 AUDIO
    TITLE "19:cjc023_1528"
    INDEX 01 03:55:60
  TRACK 193 AUDIO
    TITLE "0:"
    INDEX 01 03:58:54
  TRACK 194 AUDIO
    TITLE "18:cjc023_1529"
    INDEX 01 03:59:50
  TRACK 195 AUDIO
    TITLE "0:"
    INDEX 01 04:00:73
  TRACK 196 AUDIO
    TITLE "19:cjc023_1530"
    INDEX 01 04:01:20
  TRACK 197 AUDIO
    TITLE "0:"
    INDEX 01 04:03:36
  TRACK 198 AUDIO
    TITLE "18:cjc023_1531"
    INDEX 01 04:04:34
  TRACK 199 AUDIO
    TITLE "0:"
    INDEX 01 04:05:45
  TRACK 200 AUDIO
    TITLE "19:cjc023_1532"
    INDEX 01 04:05:68
  TRACK 201 AUDIO
    TITLE "0:"
    INDEX 01 04:08:72
  TRACK 202 AUDIO
    TITLE "18:cjc023_1533"
    INDEX 01 04:10:05
  TRACK 203 AUDIO
    TITLE "0:"
    INDEX 01 04:11:22
  TRACK 204 AUDIO
    TITLE "19:cjc023_1534"
    INDEX 01 04:11:45
  TRACK 205 AUDIO
    TITLE "0:"
    INDEX 01 04:13:52
  TRACK 206 AUDIO
    TITLE "18:cjc023_1535"
    INDEX 01 04:14:48
  TRACK 207 AUDIO
    TITLE "0:"
    INDEX 01 04:15:65
  TRACK 208 AUDIO
    TITLE "19:cjc023_1536"
    INDEX 01 04:16:13
  TRACK 209 AUDIO
    TITLE "0:"
    INDEX 01 04:18:30
  TRACK 210 AUDIO
    TITLE "18:cjc023_1537"
    INDEX 01 04:19:27
  TRACK 211 AUDIO
    TITLE "0:"
    INDEX 01 04:20:44
  TRACK 212 AUDIO
    TITLE "19:cjc023_1538"
    INDEX 01 04:20:64
  TRACK 213 AUDIO
    TITLE "0:"
    INDEX 01 04:24:11
  TRACK 214 AUDIO
    TITLE "18:cjc023_1539"
    INDEX 01 04:25:06
  TRACK 215 AUDIO
    TITLE "0:"
    INDEX 01 04:26:18
  TRACK 216 AUDIO
    TITLE "19:cjc023_1540"
    INDEX 01 04:26:41
  TRACK 217 AUDIO
    TITLE "0:"
    INDEX 01 04:29:12
  TRACK 218 AUDIO
    TITLE "18:cjc023_1541"
    INDEX 01 04:30:07
  TRACK 219 AUDIO
    TITLE "0:"
    INDEX 01 04:31:17
  TRACK 220 AUDIO
    TITLE "19:cjc023_1542"
    INDEX 01 04:31:40
  TRACK 221 AUDIO
    TITLE "0:"
    INDEX 01 04:33:63
  TRACK 222 AUDIO
    TITLE "18:cjc023_1543"
    INDEX 01 04:34:62
  TRACK 223 AUDIO
    TITLE "0:"
    INDEX 01 04:36:08
  TRACK 224 AUDIO
    TITLE "19:cjc023_1544"
    INDEX 01 04:36:30
  TRACK 225 AUDIO
    TITLE "0:"
    INDEX 01 04:38:34
  TRACK 226 AUDIO
    TITLE "18:cjc023_1545"
    INDEX 01 04:39:30
  TRACK 227 AUDIO
    TITLE "0:"
    INDEX 01 04:40:45
  TRACK 228 AUDIO
    TITLE "19:cjc023_1546"
    INDEX 01 04:40:65
  TRACK 229 AUDIO
    TITLE "0:"
    INDEX 01 04:44:27
  TRACK 230 AUDIO
    TITLE "18:cjc023_1547"
    INDEX 01 04:45:33
  TRACK 231 AUDIO
    TITLE "0:"
    INDEX 01 04:46:57
  TRACK 232 AUDIO
    TITLE "19:cjc023_1548"
    INDEX 01 04:47:02
  TRACK 233 AUDIO
    TITLE "0:"
    INDEX 01 04:49:36
  TRACK 234 AUDIO
    TITLE "18:cjc023_1549"
    INDEX 01 04:50:34
  TRACK 235 AUDIO
    TITLE "0:"
    INDEX 01 04:51:45
  TRACK 236 AUDIO
    TITLE "19:cjc023_1550"
    INDEX 01 04:51:70
  TRACK 237 AUDIO
    TITLE "0:"
    INDEX 01 04:53:67
  TRACK 238 AUDIO
    TITLE "18:cjc023_1551"
    INDEX 01 04:54:63
  TRACK 239 AUDIO
    TITLE "0:"
    INDEX 01 04:55:70
  TRACK 240 AUDIO
    TITLE "19:cjc023_1552"
    INDEX 01 04:56:15
  TRACK 241 AUDIO
    TITLE "0:"
    INDEX 01 04:58:68
  TRACK 242 AUDIO
    TITLE "18:cjc023_1553"
    INDEX 01 04:59:62
  TRACK 243 AUDIO
    TITLE "0:"
    INDEX 01 05:01:22
  TRACK 244 AUDIO
    TITLE "19:cjc023_1554"
    INDEX 01 05:01:47
  TRACK 245 AUDIO
    TITLE "0:"
    INDEX 01 05:03:58
  TRACK 246 AUDIO
    TITLE "18:cjc023_1555"
    INDEX 01 05:04:53
  TRACK 247 AUDIO
    TITLE "0:"
    INDEX 01 05:05:70
  TRACK 248 AUDIO
    TITLE "19:cjc023_1556"
    INDEX 01 05:06:17
  TRACK 249 AUDIO
    TITLE "0:"
    INDEX 01 05:08:41
  TRACK 250 AUDIO
    TITLE "18:cjc023_1557"
    INDEX 01 05:09:39
  TRACK 251 AUDIO
    TITLE "0:"
    INDEX 01 05:10:44
  TRACK 252 AUDIO
    TITLE "19:cjc023_1558"
    INDEX 01 05:10:68
  TRACK 253 AUDIO
    TITLE "0:"
    INDEX 01 05:12:61
  TRACK 254 AUDIO
    TITLE "18:cjc023_1559"
    INDEX 01 05:13:60
  TRACK 255 AUDIO
    TITLE "0:"
    INDEX 01 05:15:00
  TRACK 256 AUDIO
    TITLE "19:cjc023_1560"
    INDEX 01 05:15:24
  TRACK 257 AUDIO
    TITLE "0:"
    INDEX 01 05:18:12
  TRACK 258 AUDIO
    TITLE "18:cjc023_1561"
    INDEX 01 05:19:14
  TRACK 259 AUDIO
    TITLE "0:"
    INDEX 01 05:20:31
  TRACK 260 AUDIO
    TITLE "19:cjc023_1562"
    INDEX 01 05:20:50
  TRACK 261 AUDIO
    TITLE "0:"
    INDEX 01 05:22:18
  TRACK 262 AUDIO
    TITLE "18:cjc023_1563"
    INDEX 01 05:23:14
  TRACK 263 AUDIO
    TITLE "0:"
    INDEX 01 05:24:25
  TRACK 264 AUDIO
    TITLE "19:cjc023_1564"
    INDEX 01 05:24:48
  TRACK 265 AUDIO
    TITLE "0:"
    INDEX 01 05:27:21
  TRACK 266 AUDIO
    TITLE "18:cjc023_1565"
    INDEX 01 05:28:19
  TRACK 267 AUDIO
    TITLE "0:"
    INDEX 01 05:29:49
  TRACK 268 AUDIO
    TITLE "19:cjc023_1566"
    INDEX 01 05:29:71
  TRACK 269 AUDIO
    TITLE "0:"
    INDEX 01 05:32:14
  TRACK 270 AUDIO
    TITLE "18:cjc023_1567"
    INDEX 01 05:33:12
  TRACK 271 AUDIO
    TITLE "0:"
    INDEX 01 05:34:25
  TRACK 272 AUDIO
    TITLE "19:cjc023_1568"
    INDEX 01 05:34:49
  TRACK 273 AUDIO
    TITLE "0:"
    INDEX 01 05:37:33
  TRACK 274 AUDIO
    TITLE "18:cjc023_1569"
    INDEX 01 05:38:27
  TRACK 275 AUDIO
    TITLE "0:"
    INDEX 01 05:39:60
  TRACK 276 AUDIO
    TITLE "19:cjc023_1570"
    INDEX 01 05:40:06
  TRACK 277 AUDIO
    TITLE "0:"
    INDEX 01 05:42:40
  TRACK 278 AUDIO
    TITLE "18:cjc023_1571"
    INDEX 01 05:43:36
  TRACK 279 AUDIO
    TITLE "0:"
    INDEX 01 05:44:65
  TRACK 280 AUDIO
    TITLE "19:cjc023_1572"
    INDEX 01 05:45:09
  TRACK 281 AUDIO
    TITLE "0:"
    INDEX 01 05:47:65
  TRACK 282 AUDIO
    TITLE "18:cjc023_1573"
    INDEX 01 05:48:62
  TRACK 283 AUDIO
    TITLE "0:"
    INDEX 01 05:49:72
  TRACK 284 AUDIO
    TITLE "19:cjc023_1574"
    INDEX 01 05:50:18
  TRACK 285 AUDIO
    TITLE "0:"
    INDEX 01 05:52:25
  TRACK 286 AUDIO
    TITLE "18:cjc023_1575"
    INDEX 01 05:53:19
  TRACK 287 AUDIO
    TITLE "0:"
    INDEX 01 05:54:28
  TRACK 288 AUDIO
    TITLE "19:cjc023_1576"
    INDEX 01 05:54:47
  TRACK 289 AUDIO
    TITLE "0:"
    INDEX 01 05:57:07
  TRACK 290 AUDIO
    TITLE "18:cjc023_1577"
    INDEX 01 05:58:02
  TRACK 291 AUDIO
    TITLE "0:"
    INDEX 01 05:59:13
  TRACK 292 AUDIO
    TITLE "19:cjc023_1578"
    INDEX 01 05:59:35
  TRACK 293 AUDIO
    TITLE "0:"
    INDEX 01 06:01:04
  TRACK 294 AUDIO
    TITLE "18:cjc023_1579"
    INDEX 01 06:02:00
  TRACK 295 AUDIO
    TITLE "0:"
    INDEX 01 06:03:11
  TRACK 296 AUDIO
    TITLE "19:cjc023_1580"
    INDEX 01 06:03:33
  TRACK 297 AUDIO
    TITLE "0:"
    INDEX 01 06:05:69
  TRACK 298 AUDIO
    TITLE "18:cjc023_1581"
    INDEX 01 06:06:64
  TRACK 299 AUDIO
    TITLE "0:"
    INDEX 01 06:08:06
  TRACK 300 AUDIO
    TITLE "19:cjc023_1582"
    INDEX 01 06:08:40
  TRACK 301 AUDIO
    TITLE "0:"
    INDEX 01 06:11:28
  TRACK 302 AUDIO
    TITLE "18:cjc023_1583"
    INDEX 01 06:12:22
  TRACK 303 AUDIO
    TITLE "0:"
    INDEX 01 06:13:35
  TRACK 304 AUDIO
    TITLE "19:cjc023_1584"
    INDEX 01 06:13:55
  TRACK 305 AUDIO
    TITLE "0:"
    INDEX 01 06:15:61
  TRACK 306 AUDIO
    TITLE "18:cjc023_1585"
    INDEX 01 06:16:57
  TRACK 307 AUDIO
    TITLE "0:"
    INDEX 01 06:17:72
  TRACK 308 AUDIO
    TITLE "19:cjc023_1586"
    INDEX 01 06:18:18
  TRACK 309 AUDIO
    TITLE "0:"
    INDEX 01 06:21:03
  TRACK 310 AUDIO
    TITLE "18:cjc023_1587"
    INDEX 01 06:21:72
  TRACK 311 AUDIO
    TITLE "0:"
    INDEX 01 06:23:08
  TRACK 312 AUDIO
    TITLE "19:cjc023_1588"
    INDEX 01 06:23:27
  TRACK 313 AUDIO
    TITLE "0:"
    INDEX 01 06:26:14
  TRACK 314 AUDIO
    TITLE "18:cjc023_1589"
    INDEX 01 06:27:15
  TRACK 315 AUDIO
    TITLE "0:"
    INDEX 01 06:28:35
  TRACK 316 AUDIO
    TITLE "19:cjc023_1590"
    INDEX 01 06:28:56
  TRACK 317 AUDIO
    TITLE "0:"
    INDEX 01 06:30:37
  TRACK 318 AUDIO
    TITLE "18:cjc023_1591"
    INDEX 01 06:31:33
  TRACK 319 AUDIO
    TITLE "0:"
    INDEX 01 06:32:68
  TRACK 320 AUDIO
    TITLE "19:cjc023_1592"
    INDEX 01 06:33:12
  TRACK 321 AUDIO
    TITLE "0:"
    INDEX 01 06:36:48
  TRACK 322 AUDIO
    TITLE "18:cjc023_1593"
    INDEX 01 06:37:45
  TRACK 323 AUDIO
    TITLE "0:"
    INDEX 01 06:38:56
  TRACK 324 AUDIO
    TITLE "19:cjc023_1594"
    INDEX 01 06:39:03
  TRACK 325 AUDIO
    TITLE "0:"
    INDEX 01 06:41:00
  TRACK 326 AUDIO
    TITLE "18:cjc023_1595"
    INDEX 01 06:41:70
  TRACK 327 AUDIO
    TITLE "0:"
    INDEX 01 06:43:07
  TRACK 328 AUDIO
    TITLE "19:cjc023_1596"
    INDEX 01 06:43:28
  TRACK 329 AUDIO
    TITLE "0:"
    INDEX 01 06:45:33
  TRACK 330 AUDIO
    TITLE "18:cjc023_1597"
    INDEX 01 06:46:27
  TRACK 331 AUDIO
    TITLE "0:"
    INDEX 01 06:47:32
  TRACK 332 AUDIO
    TITLE "19:cjc023_1598"
    INDEX 01 06:47:50
  TRACK 333 AUDIO
    TITLE "0:"
    INDEX 01 06:49:23
  TRACK 334 AUDIO
    TITLE "18:cjc023_1599"
    INDEX 01 06:50:22
  TRACK 335 AUDIO
    TITLE "0:"
    INDEX 01 06:51:51
  TRACK 336 AUDIO
    TITLE "19:cjc023_1600"
    INDEX 01 06:51:73
  TRACK 337 AUDIO
    TITLE "0:"
    INDEX 01 06:54:32
  TRACK 338 AUDIO
    TITLE "18:cjc023_1601"
    INDEX 01 06:55:33
  TRACK 339 AUDIO
    TITLE "0:"
    INDEX 01 06:56:64
  TRACK 340 AUDIO
    TITLE "19:cjc023_1602"
    INDEX 01 06:57:11
  TRACK 341 AUDIO
    TITLE "0:"
    INDEX 01 06:59:17
  TRACK 342 AUDIO
    TITLE "18:cjc023_1603"
    INDEX 01 07:00:15
  TRACK 343 AUDIO
    TITLE "0:"
    INDEX 01 07:01:18
  TRACK 344 AUDIO
    TITLE "19:cjc023_1604"
    INDEX 01 07:01:40
  TRACK 345 AUDIO
    TITLE "0:"
    INDEX 01 07:04:19
  TRACK 346 AUDIO
    TITLE "18:cjc023_1605"
    INDEX 01 07:05:16
  TRACK 347 AUDIO
    TITLE "0:"
    INDEX 01 07:06:23
  TRACK 348 AUDIO
    TITLE "19:cjc023_1606"
    INDEX 01 07:06:47
  TRACK 349 AUDIO
    TITLE "0:"
    INDEX 01 07:08:58
  TRACK 350 AUDIO
    TITLE "18:cjc023_1607"
    INDEX 01 07:09:53
  TRACK 351 AUDIO
    TITLE "0:"
    INDEX 01 07:11:13
  TRACK 352 AUDIO
    TITLE "19:cjc023_1608"
    INDEX 01 07:11:32
  TRACK 353 AUDIO
    TITLE "0:"
    INDEX 01 07:13:41
  TRACK 354 AUDIO
    TITLE "18:cjc023_1609"
    INDEX 01 07:14:39
  TRACK 355 AUDIO
    TITLE "0:"
    INDEX 01 07:15:71
  TRACK 356 AUDIO
    TITLE "19:cjc023_1610"
    INDEX 01 07:16:18
  TRACK 357 AUDIO
    TITLE "0:"
    INDEX 01 07:18:29
  TRACK 358 AUDIO
    TITLE "18:cjc023_1611"
    INDEX 01 07:19:26
  TRACK 359 AUDIO
    TITLE "0:"
    INDEX 01 07:20:57
  TRACK 360 AUDIO
    TITLE "19:cjc023_1612"
    INDEX 01 07:21:05
  TRACK 361 AUDIO
    TITLE "0:"
    INDEX 01 07:23:73
  TRACK 362 AUDIO
    TITLE "18:cjc023_1613"
    INDEX 01 07:24:72
  TRACK 363 AUDIO
    TITLE "0:"
    INDEX 01 07:26:28
  TRACK 364 AUDIO
    TITLE "19:cjc023_1614"
    INDEX 01 07:26:44
  TRACK 365 AUDIO
    TITLE "0:"
    INDEX 01 07:28:37
  TRACK 366 AUDIO
    TITLE "18:cjc023_1615"
    INDEX 01 07:29:32
  TRACK 367 AUDIO
    TITLE "0:"
    INDEX 01 07:30:49
  TRACK 368 AUDIO
    TITLE "19:cjc023_1616"
    INDEX 01 07:31:00
  TRACK 369 AUDIO
    TITLE "0:"
    INDEX 01 07:32:68
  TRACK 370 AUDIO
    TITLE "18:cjc023_1617"
    INDEX 01 07:33:71
  TRACK 371 AUDIO
    TITLE "0:"
    INDEX 01 07:35:07
  TRACK 372 AUDIO
    TITLE "19:cjc023_1618"
    INDEX 01 07:35:23
  TRACK 373 AUDIO
    TITLE "0:"
    INDEX 01 07:37:12
  TRACK 374 AUDIO
    TITLE "18:cjc023_1619"
    INDEX 01 07:38:08
  TRACK 375 AUDIO
    TITLE "0:"
    INDEX 01 07:39:46
  TRACK 376 AUDIO
    TITLE "19:cjc023_1620"
    INDEX 01 07:39:68
  TRACK 377 AUDIO
    TITLE "0:"
    INDEX 01 07:42:68
  TRACK 378 AUDIO
    TITLE "18:cjc023_1621"
    INDEX 01 07:43:64
  TRACK 379 AUDIO
    TITLE "0:"
    INDEX 01 07:45:06
  TRACK 380 AUDIO
    TITLE "19:cjc023_1622"
    INDEX 01 07:45:25
  TRACK 381 AUDIO
    TITLE "0:"
    INDEX 01 07:48:10
  TRACK 382 AUDIO
    TITLE "18:cjc023_1623"
    INDEX 01 07:49:06
  TRACK 383 AUDIO
    TITLE "0:"
    INDEX 01 07:50:36
  TRACK 384 AUDIO
    TITLE "19:cjc023_1624"
    INDEX 01 07:50:58
  TRACK 385 AUDIO
    TITLE "0:"
    INDEX 01 07:52:71
  TRACK 386 AUDIO
    TITLE "18:cjc023_1625"
    INDEX 01 07:53:66
  TRACK 387 AUDIO
    TITLE "0:"
    INDEX 01 07:54:69
  TRACK 388 AUDIO
    TITLE "19:cjc023_1626"
    INDEX 01 07:55:20
  TRACK 389 AUDIO
    TITLE "0:"
    INDEX 01 07:58:38
  TRACK 390 AUDIO
    TITLE "18:cjc023_1627"
    INDEX 01 07:59:39
  TRACK 391 AUDIO
    TITLE "0:"
    INDEX 01 08:00:45
  TRACK 392 AUDIO
    TITLE "19:cjc023_1628"
    INDEX 01 08:00:68
  TRACK 393 AUDIO
    TITLE "0:"
    INDEX 01 08:02:43
  TRACK 394 AUDIO
    TITLE "18:cjc023_1629"
    INDEX 01 08:03:39
  TRACK 395 AUDIO
    TITLE "0:"
    INDEX 01 08:04:68
  TRACK 396 AUDIO
    TITLE "19:cjc023_1630"
    INDEX 01 08:05:12
  TRACK 397 AUDIO
    TITLE "0:"
    INDEX 01 08:08:23
  TRACK 398 AUDIO
    TITLE "18:cjc023_1631"
    INDEX 01 08:09:18
  TRACK 399 AUDIO
    TITLE "0:"
    INDEX 01 08:10:27
  TRACK 400 AUDIO
    TITLE "19:cjc023_1632"
    INDEX 01 08:10:47
  TRACK 401 AUDIO
    TITLE "0:"
    INDEX 01 08:12:32
